# xmcd
#
# Track frame offsets: 
#        150
#        19420
#        48285
#        71807
#        90020
#        118600
#        140510
#        163955
#        188700
#        217170
#
# Disc length: 3175 seconds
#
# Revision: 0
# Processed by: cddbd v1.5.2PL0 Copyright (c) Steve Scherf et al.
# Submitted via: ExactAudioCopy v1.0b3
#
DISCID=8f0c650a
DTITLE=Thanh Tuyen - Tu Nua Vong Trai Dat
DYEAR=1995
DGENRE=
TTITLE0=Co hang xom
TTITLE1=Tu nua vong trai dat
TTITLE2=Vung troi ngay do
TTITLE3=Nguoi tinh va que huong
TTITLE4=Hoa no ve dem
TTITLE5=Anh biet em oi
TTITLE6=Xin goi nhau la co nhan
TTITLE7=Rung la thap
TTITLE8=Toi ban duong to
TTITLE9=Pho dem
EXTD=
EXTT0=
EXTT1=
EXTT2=
EXTT3=
EXTT4=
EXTT5=
EXTT6=
EXTT7=
EXTT8=
EXTT9=
PLAYORDER=
